<svg width="78px" height="37px" viewBox="0 0 78 37" version="1.1" xmlns="http://www.w3.org/2000/svg" xmlns:xlink="http://www.w3.org/1999/xlink"><title>onX</title><defs><polygon id="path-1" points="77.9317369 36.9202944 0 36.9202944 0 6.91588785e-05 77.9317369 6.91588785e-05 77.9317369 36.9202944"></polygon></defs><g id="Symbols" stroke="none" stroke-width="1" fill="none" fill-rule="evenodd"><g id="Navigation" transform="translate(-657.000000, -17.000000)"><g id="Page-1"><g transform="translate(657.000000, 17.000000)"><mask id="mask-2" fill="white"><use xlink:href="#path-1"></use></mask><g id="Clip-2"></g><path d="M29.0067168,12.5074523 L25.6839517,12.5074523 L25.6839517,19.3265178 L20.6376832,12.5074523 L17.4023409,12.5074523 L17.4023409,24.6382654 L20.7252805,24.6382654 L20.7252805,17.8192 L25.7710255,24.6382654 L29.0067168,24.6382654 L29.0067168,12.5074523 Z M12.9427302,18.5728589 C12.9427302,22.1945364 10.2579248,24.8633776 6.47152215,24.8633776 C2.68477047,24.8633776 -3.48993289e-05,22.1945364 -3.48993289e-05,18.5728589 C-3.48993289e-05,14.9508355 2.68477047,12.2823402 6.47152215,12.2823402 C10.2579248,12.2823402 12.9427302,14.9508355 12.9427302,18.5728589 L12.9427302,18.5728589 Z M3.45447517,18.5728589 C3.45447517,20.4273542 4.68746846,21.7097327 6.47152215,21.7097327 C8.25557584,21.7097327 9.48822013,20.4273542 9.48822013,18.5728589 C9.48822013,16.7183636 8.25557584,15.435985 6.47152215,15.435985 C4.68746846,15.435985 3.45447517,16.7183636 3.45447517,18.5728589 L3.45447517,18.5728589 Z M40.669898,36.9203636 L77.9317369,36.9203636 L77.9317369,6.91588785e-05 L40.669898,6.91588785e-05 L40.669898,36.9203636 Z M68.0330658,23.7447327 L64.6343946,27.1127701 L59.3009047,21.8283402 L53.9674148,27.1127701 L50.5682201,23.7447327 L55.9017101,18.4601299 L50.5682201,13.1755271 L53.9674148,9.80800841 L59.3009047,15.0920925 L64.6343946,9.80800841 L68.0330658,13.1755271 L62.7000993,18.4601299 L68.0330658,23.7447327 Z" id="Fill-1" fill="#FFFFFF" mask="url(#mask-2)"></path></g></g></g></g></svg>