<!DOCTYPE svg PUBLIC "-//W3C//DTD SVG 20010904//EN" "http://www.w3.org/TR/2001/REC-SVG-20010904/DTD/svg10.dtd">
<svg version="1.0" xmlns="http://www.w3.org/2000/svg" width="1200px" height="494px" viewBox="0 0 12000 4940" preserveAspectRatio="xMidYMid meet">
<g id="layer101" fill="white" stroke="none">
 <path d="M9535 4573 c-534 -3 -4108 -21 -6455 -33 -1108 -6 -2186 -12 -2395 -13 l-380 -2 3 -300 c2 -165 5 -428 7 -585 5 -348 20 -2646 20 -2963 l0 -229 34 6 c19 3 76 26 125 52 117 60 454 215 576 266 62 25 123 42 175 49 44 5 125 21 180 34 55 14 156 34 225 45 156 25 341 68 486 111 l111 32 204 -51 c112 -28 238 -58 279 -67 41 -9 95 -23 120 -31 25 -7 161 -38 302 -68 l257 -56 83 25 c46 13 137 42 203 63 122 41 200 61 245 64 23 2 348 -169 585 -307 50 -29 128 -72 175 -95 132 -66 257 -138 352 -202 48 -32 135 -82 194 -110 l108 -50 24 28 c13 16 57 79 98 139 40 61 105 153 144 205 39 52 87 122 107 155 21 33 64 97 98 141 62 85 90 125 179 259 29 44 95 144 147 222 52 78 132 208 179 289 97 167 154 260 218 356 l45 67 138 45 c76 25 145 46 152 46 19 0 256 74 377 117 l105 38 195 0 c107 1 292 5 410 9 l216 8 319 -323 c404 -408 595 -597 620 -614 11 -7 127 -27 265 -45 135 -17 281 -41 325 -51 159 -40 364 -70 555 -84 195 -14 279 -24 590 -69 91 -14 194 -27 230 -31 36 -3 90 -11 120 -16 30 -5 114 -14 185 -20 72 -5 180 -16 240 -23 61 -7 116 -11 123 -8 11 4 13 125 10 691 -1 377 0 1141 5 1696 4 556 5 1052 1 1103 l-6 92 -932 -2 c-512 -2 -1097 -4 -1301 -5z m1010 -142 c18 -105 22 -435 6 -552 -21 -160 -80 -378 -131 -494 -10 -22 -40 -89 -65 -150 -128 -298 -257 -515 -422 -708 -45 -54 -83 -95 -83 -92 0 3 20 49 44 103 111 245 299 718 330 830 29 105 35 167 42 406 5 201 3 250 -15 381 -11 83 -32 200 -46 260 -13 61 -25 116 -25 122 0 9 43 13 168 15 193 3 173 16 197 -121z m386 77 c3 -160 -31 -423 -71 -554 -17 -53 -30 -100 -30 -105 0 -18 -96 -232 -171 -382 -82 -163 -171 -308 -268 -437 -183 -241 -189 -248 -321 -395 -59 -66 -129 -146 -155 -177 -26 -32 -49 -58 -52 -58 -7 0 32 51 88 115 186 212 315 440 484 855 88 216 130 390 144 599 11 173 -2 416 -28 511 -11 41 -21 76 -21 78 0 1 90 2 200 2 l200 0 1 -52z m365 35 c-3 -10 -15 -58 -26 -108 -53 -229 -121 -437 -184 -563 -49 -101 -81 -145 -256 -367 -47 -59 -106 -135 -132 -169 -26 -33 -95 -110 -154 -171 -59 -60 -100 -101 -92 -90 86 111 260 435 356 661 81 191 128 423 139 687 l6 137 174 0 c161 0 174 -1 169 -17z m230 -30 c-12 -86 -56 -235 -91 -312 -35 -78 -207 -298 -408 -523 -107 -118 -151 -148 -70 -46 83 105 96 124 146 224 44 88 105 263 145 419 49 189 62 244 62 264 0 20 4 21 111 21 l111 0 -6 -47z m218 20 c-14 -56 -34 -89 -86 -143 -82 -85 -168 -163 -174 -158 -3 3 9 52 25 109 16 57 33 130 36 162 l6 57 100 0 99 0 -6 -27z m-1575 -20 c25 -99 51 -252 67 -386 15 -130 16 -178 7 -400 -11 -244 -12 -256 -46 -367 -19 -63 -53 -162 -76 -220 -23 -58 -57 -143 -76 -190 -30 -77 -89 -215 -207 -484 -23 -55 -44 -92 -46 -82 -4 19 28 174 64 311 45 173 73 281 98 375 44 168 90 543 82 672 -10 149 -24 272 -39 343 -9 39 -21 99 -27 135 -11 63 -56 267 -66 302 -6 19 9 21 168 26 l87 2 10 -37z m-1530 0 c-6 -16 -45 -77 -88 -138 -65 -92 -126 -192 -241 -390 -23 -39 -128 -240 -256 -493 -65 -126 -104 -193 -104 -177 0 14 24 123 54 243 30 119 64 263 76 320 11 56 31 137 44 180 13 42 31 104 41 137 23 81 79 207 122 277 l35 57 72 4 c39 1 113 4 163 5 l93 2 -11 -27z m114 20 l38 -6 -25 -26 c-13 -14 -43 -62 -67 -106 -23 -44 -55 -99 -70 -122 -16 -23 -49 -81 -74 -130 -46 -92 -191 -317 -268 -415 -24 -31 -62 -89 -84 -130 -37 -67 -124 -199 -172 -258 -19 -23 -19 -20 4 49 13 40 44 110 68 155 25 44 77 144 117 221 123 238 261 476 328 568 21 29 58 87 82 130 47 82 48 83 123 70z m181 -26 c11 -58 66 -219 101 -297 19 -41 63 -140 99 -220 35 -80 91 -203 124 -275 33 -71 81 -193 107 -270 26 -77 69 -196 95 -265 119 -310 217 -612 226 -690 5 -44 3 -42 -45 51 -27 52 -80 162 -117 245 -37 82 -80 172 -94 199 -15 28 -53 100 -85 160 -32 61 -68 126 -80 145 -56 90 -227 426 -268 525 -56 137 -159 445 -187 556 -12 46 -23 90 -25 96 -2 7 7 26 21 43 22 26 33 30 74 30 46 0 48 -1 54 -33z m290 -64 c124 -211 245 -495 294 -693 17 -69 47 -179 67 -245 42 -141 56 -265 54 -488 -1 -121 3 -170 20 -242 27 -119 27 -157 -1 -90 -11 28 -33 91 -48 140 -32 103 -97 287 -139 390 -16 39 -52 140 -81 225 -29 85 -77 209 -108 275 -30 66 -89 197 -132 290 -42 94 -89 196 -103 227 -38 82 -97 256 -97 284 0 24 1 24 108 24 l108 0 58 -97z m352 -56 c29 -83 75 -217 103 -297 134 -374 173 -607 141 -845 -5 -38 -19 -189 -30 -335 -24 -305 -37 -440 -44 -447 -2 -2 -7 15 -11 39 -4 24 -23 117 -42 208 -33 152 -36 177 -34 320 2 234 -10 332 -62 510 -25 85 -53 189 -62 230 -37 157 -138 403 -234 573 -31 54 -69 121 -84 148 l-28 49 168 0 168 -1 51 -152z m318 101 c15 -53 20 -78 75 -373 50 -262 59 -513 26 -685 -3 -14 -12 -79 -20 -145 -9 -66 -34 -187 -57 -270 -22 -82 -63 -235 -90 -340 l-49 -190 6 100 c8 152 43 580 54 665 34 256 -20 540 -182 960 -61 158 -107 295 -107 318 0 9 40 12 164 12 l165 0 15 -52z m-5160 31 c-3 -5 -26 -23 -52 -40 -26 -18 -72 -55 -102 -84 -30 -28 -89 -77 -130 -110 -41 -32 -109 -90 -150 -130 -69 -65 -157 -132 -219 -165 -22 -11 -21 -8 10 30 19 23 75 106 124 184 50 79 119 181 154 227 l63 84 77 6 c119 8 231 7 225 -2z m261 -25 c-22 -19 -84 -58 -137 -86 -54 -28 -137 -84 -185 -123 -49 -40 -102 -79 -118 -87 -17 -9 -82 -51 -145 -94 -158 -107 -274 -163 -375 -179 -37 -5 -33 -2 46 43 91 52 188 122 229 167 14 15 63 59 110 98 47 38 114 98 150 133 36 34 98 85 139 113 l75 51 125 0 126 -1 -40 -35z m241 -41 c56 -60 59 -65 40 -73 -12 -4 -68 -24 -126 -43 -216 -72 -494 -200 -575 -264 -59 -46 -300 -167 -365 -183 -25 -6 -74 -10 -109 -8 l-64 3 124 55 c74 32 176 89 254 140 72 48 148 98 170 112 22 14 72 53 112 86 39 33 118 86 175 118 57 32 126 75 153 96 47 36 53 38 100 32 45 -6 56 -12 111 -71z m1197 32 c-4 -63 -281 -602 -370 -721 l-22 -29 -1 26 c0 32 75 303 133 479 39 118 51 164 73 268 4 22 8 23 97 20 l92 -3 -2 -40z m1207 43 c0 -2 -7 -25 -16 -53 -47 -151 -47 -415 0 -595 47 -184 96 -356 116 -415 26 -75 60 -195 55 -195 -2 0 -25 35 -52 78 -26 42 -72 113 -100 157 -66 100 -210 381 -256 500 -55 143 -94 365 -81 467 l7 48 51 -6 c28 -3 78 -1 111 4 56 9 165 15 165 10z m316 -70 c-38 -85 -75 -191 -108 -303 -22 -77 -23 -93 -23 -445 0 -273 4 -378 14 -418 7 -29 11 -55 8 -58 -12 -12 -120 341 -203 666 -44 170 -43 429 1 578 l16 52 164 0 164 0 -33 -72z m311 19 c-73 -114 -144 -310 -197 -542 -68 -299 -178 -707 -190 -700 -3 2 -13 37 -21 77 -10 54 -14 161 -14 408 0 315 1 340 22 415 37 133 79 256 111 328 l31 67 146 0 146 0 -34 -53z m-4157 38 c0 -3 -38 -101 -84 -217 -46 -117 -98 -249 -115 -293 l-31 -80 5 80 c18 250 40 410 66 477 9 21 19 28 47 31 62 6 112 7 112 2z m300 -3 c0 -4 -24 -37 -53 -72 -30 -36 -88 -119 -131 -185 -98 -153 -186 -257 -259 -307 -32 -22 -60 -38 -62 -36 -5 5 204 570 222 601 6 10 283 9 283 -1z m1071 -55 c87 -118 207 -302 254 -392 26 -49 60 -108 75 -130 15 -22 39 -65 54 -95 l27 -55 -102 105 c-198 202 -285 295 -324 345 -21 28 -57 70 -79 95 -23 25 -53 59 -67 75 -14 17 -42 44 -62 62 -21 17 -37 36 -37 42 0 7 37 11 108 11 l107 0 46 -63z m268 41 c18 -49 182 -681 177 -685 -1 -2 -40 63 -86 144 -101 179 -96 172 -245 375 -67 89 -124 169 -129 176 -6 9 24 12 134 12 137 0 141 -1 149 -22z m217 -35 c14 -48 17 -115 20 -403 l4 -345 -20 55 c-12 30 -43 143 -70 250 -27 107 -65 251 -85 319 -19 69 -35 138 -35 153 l0 28 84 0 85 0 17 -57z m234 30 c0 -50 -28 -177 -59 -263 -33 -95 -97 -324 -106 -384 -14 -85 -23 -6 -24 198 0 116 -5 265 -10 331 -6 66 -11 126 -11 133 0 9 28 12 105 12 l105 0 0 -27z m802 -20 c-62 -75 -190 -194 -272 -256 -154 -116 -197 -149 -259 -200 -36 -28 -94 -74 -130 -101 -36 -27 -92 -69 -123 -93 -32 -23 -58 -41 -58 -38 0 3 108 115 239 248 132 133 249 254 261 269 11 15 34 60 51 100 52 126 39 118 195 118 l136 0 -40 -47z m266 41 c-4 -3 -39 -27 -80 -52 -100 -63 -121 -81 -244 -197 -58 -54 -122 -109 -142 -120 -46 -26 -154 -99 -207 -140 -48 -36 -57 -41 -205 -118 -128 -66 -130 -57 -7 27 45 31 138 103 207 161 69 57 152 125 185 151 65 50 223 202 268 259 l29 35 101 0 c55 0 98 -3 95 -6z m-4228 -43 c34 -68 203 -206 330 -271 25 -13 70 -39 100 -60 30 -20 95 -61 143 -90 48 -29 86 -54 83 -57 -2 -3 -46 13 -98 36 -99 43 -403 161 -414 161 -17 0 -218 98 -309 150 -55 31 -120 67 -144 79 -24 13 -55 35 -68 49 l-25 27 33 6 c19 3 105 6 192 6 l157 1 20 -37z m462 -12 c4 -34 16 -65 40 -102 20 -30 48 -78 63 -108 26 -51 99 -162 162 -246 l28 -38 -30 19 c-16 11 -64 40 -105 64 -41 24 -115 70 -165 102 -49 31 -124 76 -166 99 -128 72 -279 205 -279 246 0 7 72 11 224 12 l224 1 4 -49z m438 47 c0 -3 -11 -51 -25 -108 -14 -57 -30 -164 -36 -238 -6 -74 -13 -142 -16 -150 -13 -40 -93 298 -93 394 0 108 -1 106 91 106 43 0 79 -2 79 -4z m2790 0 c0 -13 -63 -142 -81 -164 -63 -80 -570 -614 -577 -607 -3 2 1 12 8 20 50 60 289 506 356 662 l39 93 128 0 c70 0 127 -2 127 -4z m-5264 -43 c70 -53 183 -91 334 -113 80 -11 222 -37 315 -56 208 -43 347 -68 528 -94 77 -11 182 -31 235 -44 54 -14 138 -32 187 -41 113 -20 280 -66 393 -109 48 -18 109 -41 135 -50 27 -10 47 -20 45 -22 -5 -4 -275 51 -368 75 -152 41 -210 51 -434 81 -126 17 -247 35 -270 39 -23 5 -70 12 -106 16 -36 3 -144 19 -240 35 -96 16 -206 31 -245 35 -96 9 -225 32 -276 50 -24 9 -90 24 -148 35 -126 23 -218 45 -407 94 -77 20 -203 49 -280 65 -129 27 -136 29 -89 33 28 3 187 2 355 0 302 -5 305 -5 336 -29z m718 11 c37 -25 188 -86 301 -121 28 -8 115 -41 195 -72 80 -32 207 -77 282 -101 76 -24 136 -45 134 -47 -4 -5 -161 26 -241 47 -38 11 -151 31 -250 45 -99 14 -259 42 -355 62 -214 43 -341 66 -485 86 -146 21 -301 84 -282 115 5 6 123 10 333 11 l327 2 41 -27z m444 1 c38 -48 392 -254 491 -286 151 -48 407 -150 446 -177 l20 -14 -20 7 c-147 55 -284 100 -390 130 -71 20 -240 76 -375 125 -135 49 -283 102 -330 118 -93 33 -233 91 -265 110 -16 9 26 11 192 12 l212 0 19 -25z m1128 -63 c1 -88 24 -212 70 -372 26 -93 28 -103 15 -98 -23 9 -221 290 -221 314 0 7 -16 36 -36 65 -46 68 -64 110 -64 149 l0 30 118 0 117 0 1 -88z m3531 -20 c5 -303 131 -596 489 -1139 71 -107 58 -99 -87 54 -249 261 -426 484 -522 654 -68 123 -78 145 -102 247 -25 106 -22 123 32 163 42 31 184 129 187 129 0 0 2 -48 3 -108z m-6673 31 c65 -79 242 -326 331 -463 82 -127 165 -237 210 -280 20 -19 50 -52 67 -73 l30 -38 -50 19 c-97 37 -242 142 -334 243 -115 125 -146 166 -208 279 -67 122 -114 185 -219 293 l-85 87 101 0 101 0 56 -67z m83 49 l82 -17 61 -83 c126 -172 188 -276 235 -397 36 -91 118 -255 162 -324 l34 -53 -28 20 c-76 55 -201 209 -300 372 -22 36 -79 119 -127 185 -48 66 -102 143 -121 171 -18 29 -38 55 -43 58 -6 3 -25 24 -42 46 -37 47 -36 48 87 22z m-238 -113 c56 -61 118 -141 140 -177 21 -37 56 -98 79 -137 42 -73 185 -241 264 -310 25 -22 93 -69 151 -105 58 -36 104 -67 102 -69 -10 -9 -160 34 -225 65 -172 82 -319 217 -445 408 -41 64 -100 142 -130 174 l-55 60 0 101 c0 56 4 101 9 101 5 0 55 -50 110 -111z m8332 15 c27 -144 209 -646 278 -764 21 -36 62 -112 92 -170 29 -58 74 -141 100 -185 106 -182 303 -589 334 -690 17 -58 17 -58 -78 85 -42 63 -101 149 -131 190 -30 41 -70 96 -88 122 -18 26 -62 88 -98 137 -99 137 -196 301 -255 432 -30 65 -83 171 -118 236 -36 65 -76 154 -90 198 -14 44 -40 126 -59 183 l-33 104 40 76 c22 42 49 89 60 103 24 32 31 23 46 -57z m-7874 55 c48 -11 94 -26 100 -33 15 -14 103 -209 144 -319 16 -44 41 -132 54 -197 14 -64 34 -144 45 -176 l20 -59 -30 35 c-32 38 -87 146 -171 335 -55 126 -110 223 -164 290 -62 79 -107 145 -97 145 6 0 50 -9 99 -21z m218 -63 c59 -20 73 -28 87 -57 68 -134 108 -338 108 -543 l0 -141 -35 76 c-19 42 -44 118 -54 170 -36 171 -50 213 -126 367 -41 83 -69 152 -62 152 7 -1 44 -11 82 -24z m4246 -53 c59 -62 114 -132 108 -136 -5 -3 -195 -51 -324 -82 -55 -14 -140 -36 -190 -50 -227 -64 -507 -130 -675 -159 -22 -4 15 19 105 65 77 39 158 86 180 104 98 79 621 304 731 314 6 1 35 -25 65 -56z m6340 -134 c-43 -159 -102 -348 -134 -434 -19 -49 -62 -164 -96 -255 -152 -404 -296 -622 -526 -796 -47 -35 -190 -122 -255 -154 -25 -13 -63 -35 -86 -51 -23 -15 -65 -37 -95 -49 -48 -19 -256 -71 -276 -69 -4 0 36 18 89 39 346 137 696 450 891 797 48 84 169 365 242 563 51 135 86 220 148 350 24 52 48 106 52 120 3 14 19 49 33 78 l27 52 3 -59 c2 -36 -5 -87 -17 -132z m-10366 132 l80 -17 8 -59 c5 -33 6 -107 4 -165 -4 -88 -11 -124 -45 -225 l-40 -119 -6 79 c-7 92 -52 342 -71 395 -7 19 -22 59 -34 89 l-22 54 23 -8 c13 -4 59 -15 103 -24z m10245 -41 c-18 -28 -44 -60 -58 -71 -15 -11 -43 -42 -62 -68 -55 -73 -107 -137 -185 -227 -105 -122 -212 -271 -519 -724 -148 -219 -256 -351 -420 -516 -144 -143 -283 -245 -430 -313 l-107 -51 33 43 c59 76 140 170 228 267 47 52 114 130 148 172 63 77 215 242 608 659 231 245 236 251 470 534 149 182 313 359 322 350 3 -2 -10 -27 -28 -55z m-4551 -67 c20 -104 58 -193 142 -331 67 -108 259 -345 421 -519 126 -134 147 -158 126 -147 -76 41 -453 312 -554 398 -39 34 -94 79 -123 101 -50 38 -99 92 -132 145 -48 75 -120 280 -99 280 4 0 49 40 100 90 52 49 95 88 96 87 2 -2 12 -48 23 -104z m-5498 70 l37 -5 -5 -67 c-9 -122 -78 -306 -168 -446 -24 -38 -25 -39 -19 -10 3 17 17 66 31 110 33 108 47 242 36 350 l-9 87 30 -7 c17 -4 47 -9 67 -12z m131 -33 c48 -13 91 -47 84 -67 -8 -21 -193 -294 -235 -348 -22 -27 -67 -95 -101 -150 -70 -112 -75 -89 -9 35 128 241 179 378 179 481 0 58 6 73 26 65 7 -3 32 -10 56 -16z m-1184 -200 c103 -155 131 -190 242 -287 73 -64 123 -98 225 -151 111 -57 126 -67 101 -70 -84 -10 -350 157 -547 344 -41 40 -99 84 -127 98 l-52 26 0 74 c0 40 -3 95 -6 122 l-7 49 48 -45 c25 -25 81 -97 123 -160z m8197 -10 c32 -124 298 -660 412 -832 70 -105 106 -156 266 -378 61 -84 207 -304 236 -355 28 -49 -228 215 -293 302 -24 32 -94 112 -156 178 -139 148 -190 208 -297 353 -185 249 -306 456 -351 596 -24 79 -24 81 -7 111 10 16 38 68 63 115 24 47 49 94 54 104 9 17 13 11 30 -40 10 -32 30 -102 43 -154z m2940 183 c-3 -16 -36 -93 -72 -173 -36 -80 -78 -181 -93 -225 -31 -90 -195 -487 -230 -555 -65 -129 -213 -324 -344 -453 -147 -144 -375 -302 -516 -356 -42 -17 -117 -48 -166 -69 -116 -51 -169 -64 -99 -24 224 126 569 402 709 568 136 161 206 267 313 472 142 274 283 532 350 640 60 98 138 202 150 202 3 0 2 -12 -2 -27z m-9694 -14 l103 -10 61 -52 c86 -74 206 -203 244 -264 67 -108 109 -252 131 -456 13 -123 -4 -293 -43 -432 l-11 -40 -7 55 c-4 30 -7 92 -8 137 -2 135 -43 311 -100 430 -45 92 -73 138 -185 297 -62 87 -205 254 -251 292 -38 31 -56 54 -41 54 2 0 50 -5 107 -11z m-91 -119 c18 -52 41 -111 52 -130 11 -19 31 -65 45 -103 13 -37 62 -145 109 -239 66 -136 84 -181 84 -216 l0 -43 -29 20 c-29 21 -116 137 -177 236 -48 78 -118 259 -149 383 l-27 112 27 40 c16 22 29 39 30 38 1 -2 17 -46 35 -98z m440 69 l136 -22 29 -50 c17 -27 41 -68 55 -91 45 -75 89 -225 111 -376 31 -208 21 -282 -64 -490 -35 -85 -73 -173 -85 -195 l-21 -40 0 40 c-1 22 8 76 18 120 49 206 47 397 -5 604 -46 181 -98 268 -258 425 -96 94 -107 108 -81 103 17 -4 91 -16 165 -28z m3348 -124 l102 -110 -172 -7 c-95 -5 -249 -12 -343 -18 -404 -23 -605 -30 -675 -25 -159 13 -158 15 25 55 94 21 229 54 300 74 282 79 310 86 320 86 6 0 75 20 155 43 133 40 147 43 165 28 11 -8 66 -65 123 -126z m-3692 27 c42 -48 96 -114 120 -147 24 -33 69 -94 99 -135 144 -196 206 -367 225 -615 18 -240 20 -280 14 -265 -4 8 -33 85 -66 170 -33 85 -127 288 -208 450 -81 162 -153 313 -160 335 -7 22 -28 70 -46 107 -51 102 -86 198 -69 192 8 -3 49 -45 91 -92z m627 57 c57 -12 58 -13 114 -93 51 -72 59 -91 75 -171 25 -129 23 -275 -6 -431 -27 -142 -47 -194 -114 -299 -24 -38 -50 -79 -57 -90 -7 -11 -29 -38 -49 -60 l-36 -40 19 50 c10 28 41 106 69 173 78 188 87 296 47 527 -16 95 -68 262 -93 305 -9 14 -30 48 -49 77 -18 28 -33 54 -33 57 0 9 52 7 113 -5z m4241 -5 c3 -9 6 -24 6 -35 0 -34 68 -198 106 -255 35 -52 68 -84 239 -224 146 -120 176 -142 499 -363 39 -27 72 -50 75 -52 11 -12 -154 58 -214 91 -114 61 -342 205 -413 261 -37 29 -105 81 -151 115 -213 159 -283 223 -328 297 l-23 38 23 21 c26 24 158 120 168 121 4 1 10 -6 13 -15z m4671 -21 c-9 -21 -33 -65 -55 -98 -42 -66 -201 -358 -279 -513 -211 -421 -410 -649 -831 -952 -133 -95 -195 -133 -265 -159 -94 -35 -100 -33 -29 12 288 180 528 432 801 842 226 340 381 554 494 685 41 47 98 117 125 153 27 37 50 67 52 67 1 0 -5 -17 -13 -37z m-8723 -3 c24 0 56 -26 181 -146 202 -194 257 -256 472 -539 101 -132 221 -277 267 -322 46 -45 117 -115 157 -155 41 -40 111 -111 155 -157 76 -77 78 -82 41 -63 -22 11 -57 33 -77 49 -21 15 -59 44 -85 63 -222 161 -414 340 -526 490 -39 52 -114 149 -166 215 -52 66 -124 158 -160 205 -87 115 -167 202 -218 239 -24 17 -45 31 -48 31 -3 0 35 -39 83 -87 48 -49 123 -135 167 -193 43 -58 104 -136 135 -175 31 -38 99 -126 150 -195 140 -187 414 -448 611 -581 20 -13 67 -45 105 -71 38 -25 83 -58 99 -73 27 -23 28 -25 5 -14 -36 17 -177 101 -310 184 -109 68 -152 93 -400 231 l-105 59 -51 95 c-104 195 -178 327 -213 380 -119 177 -178 264 -229 338 -31 46 -57 89 -57 96 0 7 -17 32 -38 55 -20 22 -37 44 -37 47 0 4 14 4 31 0 17 -3 45 -6 61 -6z m8922 -580 c-110 -242 -191 -396 -238 -455 -17 -22 -43 -58 -58 -81 -71 -110 -339 -325 -538 -432 -66 -36 -218 -88 -227 -78 -5 4 71 52 162 101 288 157 442 318 599 625 60 116 225 547 281 734 20 65 44 133 53 150 16 30 17 24 20 -204 l2 -235 -56 -125z m-9921 488 c48 -214 175 -463 311 -606 35 -37 37 -42 16 -33 -83 32 -177 103 -286 216 -90 94 -134 163 -160 256 l-24 82 57 83 c31 46 59 84 62 84 4 0 14 -37 24 -82z m1190 66 c50 -6 66 -13 115 -55 31 -26 87 -72 124 -101 129 -103 352 -387 686 -877 94 -137 119 -172 207 -291 62 -84 36 -63 -155 127 -85 85 -192 191 -238 236 -46 45 -167 192 -270 327 -187 244 -295 364 -507 559 l-100 92 40 -5 c22 -3 66 -8 98 -12z m230 -44 c67 -17 125 -34 129 -38 3 -4 25 -49 48 -101 23 -54 93 -173 164 -280 68 -102 129 -196 135 -208 19 -36 5 -26 -20 14 -61 98 -324 420 -393 481 -20 17 -61 49 -93 71 -81 56 -120 91 -105 91 8 0 69 -14 135 -30z m-2792 -50 c22 -12 72 -51 112 -89 40 -37 114 -102 165 -144 93 -77 111 -101 38 -51 -62 42 -175 90 -274 115 l-93 24 2 82 c1 46 4 83 6 83 2 0 22 -9 44 -20z m3042 -47 c157 -109 369 -335 467 -497 60 -100 128 -259 158 -371 35 -127 70 -287 62 -278 -11 11 -244 321 -303 402 -26 36 -84 125 -127 198 -44 73 -124 197 -179 277 -93 136 -192 326 -169 326 5 0 47 -26 91 -57z m3184 19 c29 -51 86 -119 127 -151 19 -14 87 -66 153 -115 65 -49 139 -108 164 -130 25 -23 110 -81 188 -131 79 -49 173 -109 209 -132 37 -24 63 -43 58 -43 -4 0 -63 24 -130 54 -66 30 -177 78 -246 106 -282 118 -355 151 -448 206 -120 71 -170 110 -248 193 l-62 66 52 26 c28 15 74 40 101 57 28 17 52 31 55 31 3 1 15 -16 27 -37z m1884 -51 c32 -126 160 -348 340 -591 109 -146 159 -207 299 -355 62 -66 138 -154 170 -195 32 -41 75 -91 95 -110 52 -50 218 -230 212 -230 -6 0 -193 155 -357 296 -206 176 -303 269 -549 525 -246 256 -259 271 -325 388 l-69 122 21 27 c12 15 47 66 79 114 32 47 60 84 62 82 3 -2 12 -35 22 -73z m-4856 23 c83 -19 171 -37 198 -40 28 -4 47 -12 47 -20 0 -7 10 -25 23 -41 77 -94 193 -324 231 -460 48 -167 89 -573 68 -663 l-8 -34 -28 59 c-15 33 -43 125 -61 205 -88 383 -207 593 -492 871 -48 48 -117 105 -153 128 l-65 42 45 -7 c25 -3 113 -21 195 -40z m2156 -51 c28 -26 67 -71 86 -100 19 -29 47 -61 61 -72 15 -11 24 -23 20 -27 -4 -4 -92 7 -195 24 -320 54 -387 61 -621 72 -360 16 -810 60 -882 85 l-35 13 49 7 c27 4 83 4 125 -1 110 -12 351 -11 621 4 129 8 291 16 360 19 69 2 161 8 205 12 154 15 150 16 206 -36z m-4166 -75 c10 -35 34 -80 64 -120 55 -72 186 -208 200 -208 5 0 12 -7 15 -16 3 -9 -22 4 -56 29 -35 24 -94 66 -133 93 -48 34 -84 71 -118 119 -26 39 -55 80 -64 93 -15 21 -13 24 23 69 43 52 36 58 69 -59z m1253 -67 l64 -106 -5 -90 c-8 -126 -48 -233 -127 -340 -71 -96 -280 -278 -299 -260 -2 3 9 20 26 38 40 41 136 185 174 260 56 110 97 391 78 537 -5 41 -12 86 -14 100 -5 25 -5 24 17 -4 12 -17 51 -77 86 -135z m1162 124 c63 -9 119 -20 124 -25 5 -5 26 -39 47 -77 222 -393 235 -481 132 -868 -19 -71 -41 -155 -49 -185 -8 -30 -19 -59 -24 -64 -14 -14 -39 131 -49 297 -18 273 -63 472 -141 627 -33 65 -109 193 -175 294 -19 28 -19 29 0 23 11 -3 72 -13 135 -22z m2376 -55 c124 -140 250 -220 538 -342 78 -33 194 -82 259 -110 116 -49 255 -126 207 -114 -14 3 -56 15 -95 26 -38 11 -155 41 -260 66 -373 91 -471 124 -659 225 -100 55 -243 179 -230 200 8 14 167 118 176 116 3 -1 32 -31 64 -67z m-2014 8 c43 -5 81 -15 86 -22 5 -6 26 -51 47 -100 l38 -89 -6 -161 c-3 -89 -12 -186 -20 -216 -32 -125 -59 -202 -101 -291 -46 -96 -121 -220 -112 -184 2 11 23 94 45 185 52 216 60 324 32 442 -20 87 -99 259 -155 341 -14 21 -36 56 -47 79 l-21 41 69 -7 c37 -4 103 -12 145 -18z m-3862 -50 c41 -16 104 -47 140 -68 36 -22 115 -64 175 -95 61 -30 101 -53 90 -51 -11 3 -61 12 -112 21 -52 9 -144 35 -209 61 -64 24 -156 52 -205 61 l-89 17 0 57 0 57 68 -15 c37 -8 101 -28 142 -45z m4206 16 c26 -5 32 -12 43 -52 47 -169 12 -387 -99 -620 -71 -148 -100 -190 -210 -307 -126 -135 -127 -134 -53 32 128 287 167 436 167 648 l1 131 -43 88 c-23 48 -42 90 -42 93 0 6 186 -4 236 -13z m-3169 -87 c46 -71 51 -75 262 -222 157 -111 156 -109 105 -91 -220 80 -394 179 -463 263 -38 46 -38 58 -5 106 31 46 37 43 101 -56z m3431 67 c70 -6 67 0 51 -107 -22 -155 -125 -410 -226 -560 -46 -70 -112 -146 -208 -243 -77 -78 -151 -147 -164 -154 -30 -15 -24 -5 39 70 78 92 115 150 180 275 81 157 96 196 127 334 20 96 24 133 20 211 -3 52 -12 116 -20 142 l-15 48 77 -6 c42 -2 104 -7 139 -10z m412 -25 c35 -6 66 -12 69 -14 2 -3 -23 -40 -56 -82 -32 -43 -92 -125 -133 -183 -99 -139 -224 -268 -395 -406 -77 -62 -158 -128 -180 -146 -34 -29 -32 -24 21 37 172 202 311 510 329 729 l7 89 137 -7 c75 -4 165 -12 201 -17z m828 -94 c29 -27 74 -62 100 -77 26 -15 40 -28 31 -28 -35 0 -253 65 -351 105 -24 10 -23 19 5 34 12 6 45 24 72 39 l50 28 20 -25 c11 -14 44 -48 73 -76z m2091 25 c73 -143 111 -191 337 -424 305 -316 410 -416 651 -616 56 -46 100 -86 98 -88 -2 -2 -57 29 -122 69 -65 40 -154 93 -198 119 -180 105 -442 287 -539 375 -120 109 -259 254 -300 313 -26 38 -66 139 -66 166 0 12 88 166 95 166 2 0 22 -36 44 -80z m-2659 30 c58 -10 122 -21 143 -25 50 -8 42 -18 -71 -84 -122 -72 -249 -164 -357 -256 -33 -29 -100 -78 -150 -110 -109 -69 -172 -111 -335 -223 -148 -102 -140 -85 20 44 216 173 293 259 499 560 94 138 64 127 251 94z m-5195 -31 c33 -9 125 -40 205 -68 l145 -50 -105 5 c-89 4 -181 20 -365 63 -30 7 -43 35 -31 66 6 16 63 10 151 -16z m973 -29 c13 -17 46 -49 75 -72 29 -23 44 -39 35 -35 -10 3 -56 18 -103 32 l-86 26 23 40 c12 21 25 39 28 39 3 0 16 -14 28 -30z m4481 9 c17 -6 31 -15 31 -20 0 -5 -24 -42 -53 -82 -29 -39 -65 -90 -80 -112 -76 -113 -272 -294 -552 -510 -49 -38 -117 -92 -150 -121 -34 -29 -84 -66 -113 -83 -60 -35 -263 -211 -365 -316 -38 -38 -99 -113 -138 -165 -38 -52 -79 -108 -92 -125 -13 -16 -58 -79 -100 -140 -42 -60 -90 -126 -107 -145 l-30 -35 6 30 c9 42 61 199 91 270 134 322 312 541 596 735 76 52 177 125 225 164 48 38 125 99 172 135 47 36 137 110 200 166 63 55 156 133 205 172 50 39 117 99 150 132 33 34 62 61 66 61 3 0 20 -5 38 -11z m179 -58 c23 -7 42 -17 42 -24 0 -14 -67 -114 -142 -212 -55 -71 -228 -234 -328 -308 -30 -22 -95 -79 -145 -127 -49 -48 -133 -121 -186 -162 -52 -42 -163 -142 -245 -224 -151 -150 -233 -221 -354 -304 -127 -88 -244 -183 -403 -330 l-59 -55 16 40 c45 110 205 349 320 478 72 81 346 321 396 347 19 10 67 45 105 77 39 32 131 105 205 163 246 190 414 349 512 483 40 55 90 121 110 148 l37 48 38 -14 c21 -7 57 -18 81 -24z m-5633 -21 c85 -21 47 -26 -70 -9 -53 8 -75 16 -75 26 0 16 23 13 145 -17z m2551 -78 c44 -58 44 -96 0 -187 -41 -86 -91 -139 -198 -208 -185 -119 -365 -211 -226 -114 67 46 195 176 241 244 61 92 100 197 105 291 l5 83 19 -32 c11 -18 35 -53 54 -77z m2753 82 c-13 -14 -64 -58 -114 -97 -49 -39 -142 -117 -205 -172 -63 -56 -155 -132 -205 -170 -49 -38 -115 -90 -145 -116 -30 -25 -134 -101 -230 -169 -207 -144 -318 -249 -433 -408 -99 -136 -138 -202 -177 -299 -26 -65 -110 -227 -110 -213 0 14 31 245 45 330 8 52 20 131 25 175 l10 80 58 53 c31 29 82 66 112 82 77 41 161 94 276 173 55 37 128 86 164 109 36 23 103 66 150 96 47 30 103 67 125 83 22 16 58 39 80 50 21 12 75 52 120 88 157 131 454 351 474 351 2 0 -6 -12 -20 -26z m5939 -214 l-5 -195 -39 -65 c-70 -118 -164 -201 -409 -363 -187 -124 -234 -149 -303 -164 -68 -14 -87 -12 -53 6 11 6 80 52 153 103 137 95 273 220 324 299 16 24 43 62 60 84 41 51 156 275 220 425 37 87 50 109 53 90 2 -14 1 -113 -1 -220z m-10293 201 c68 -21 197 -71 330 -127 84 -35 97 -45 193 -143 104 -107 233 -265 308 -376 79 -117 162 -301 188 -414 8 -38 -5 -18 -113 173 -127 225 -177 290 -337 446 -146 141 -191 179 -284 236 -91 56 -260 135 -330 155 -25 7 -47 14 -49 15 -3 3 27 54 32 54 1 0 29 -9 62 -19z m4880 -33 c39 -10 73 -23 78 -27 4 -4 -23 -27 -60 -52 -113 -74 -242 -190 -375 -335 -149 -164 -335 -346 -480 -470 -56 -49 -139 -122 -182 -162 -44 -40 -125 -105 -180 -145 -56 -39 -153 -111 -216 -158 -63 -47 -160 -115 -215 -151 -226 -147 -291 -188 -301 -188 -5 0 -33 -16 -62 -35 -28 -20 -52 -32 -52 -29 0 10 102 116 205 213 92 85 147 129 267 211 128 87 232 175 378 321 80 80 191 181 245 224 55 43 138 115 185 160 47 45 107 98 133 118 180 134 371 335 470 493 31 49 33 51 62 42 16 -6 62 -19 100 -30z m1940 -129 c42 -60 148 -173 273 -291 101 -94 370 -285 539 -382 202 -116 414 -253 453 -292 l45 -46 -40 20 c-22 11 -119 55 -215 97 -242 107 -452 218 -760 403 -278 167 -401 269 -453 376 -40 81 -36 108 28 196 30 41 55 79 56 85 0 5 10 -20 22 -56 13 -37 36 -86 52 -110z m-7816 41 c31 -42 74 -107 96 -145 52 -95 143 -215 229 -302 76 -78 73 -87 -15 -53 -129 51 -265 183 -338 328 -22 43 -53 160 -65 241 l-7 45 22 -20 c12 -10 47 -53 78 -94z m111 28 c82 -94 121 -156 186 -294 29 -62 70 -139 91 -171 21 -32 42 -64 46 -71 7 -10 2 -10 -20 2 -63 33 -248 256 -303 366 -30 59 -73 123 -127 188 l-45 52 55 0 54 0 63 -72z m747 58 c15 -15 -319 -556 -343 -556 -7 0 10 36 56 120 60 111 76 156 94 270 25 152 31 168 69 173 32 5 117 0 124 -7z m-622 -24 c6 -8 37 -56 71 -106 93 -139 140 -277 132 -391 l-3 -50 -26 40 c-28 44 -60 105 -138 265 -35 72 -73 131 -122 189 l-71 83 73 -7 c51 -4 77 -12 84 -23z m216 -40 c72 -157 82 -191 76 -277 -3 -44 -17 -113 -30 -153 l-24 -73 -11 43 c-6 24 -15 78 -21 122 -13 92 -62 201 -143 314 -33 47 -47 76 -40 80 6 4 45 8 87 9 l75 2 31 -67z m224 49 c-3 -9 -15 -68 -26 -132 -23 -142 -32 -167 -98 -289 -51 -95 -64 -111 -36 -43 8 20 20 67 26 104 14 89 1 151 -57 275 -24 53 -44 97 -44 100 0 2 54 3 120 1 101 -1 119 -4 115 -16z m296 -30 c72 -25 278 -130 355 -180 80 -53 349 -313 413 -399 47 -64 133 -207 192 -320 15 -29 42 -78 60 -108 17 -30 29 -57 27 -59 -3 -3 -109 127 -209 259 -52 68 -324 329 -409 393 -30 22 -98 63 -150 91 -52 28 -115 61 -140 75 -44 25 -221 88 -287 102 -18 3 -33 8 -33 11 0 3 35 63 77 132 16 27 34 28 104 3z m5112 -15 c40 -13 87 -27 105 -32 19 -5 34 -13 34 -19 1 -13 -50 -50 -257 -184 -93 -61 -183 -122 -200 -137 -34 -30 -208 -167 -294 -232 -31 -23 -81 -61 -111 -85 -30 -23 -83 -60 -118 -81 -35 -21 -107 -80 -160 -132 -107 -104 -196 -169 -377 -276 -66 -39 -145 -90 -175 -113 -82 -62 -268 -183 -325 -212 -27 -14 -77 -44 -110 -67 -67 -47 -118 -71 -75 -36 29 24 109 77 211 140 40 25 118 79 173 120 56 41 111 82 122 90 182 127 264 191 394 310 47 42 114 101 150 131 95 78 334 314 474 468 66 73 162 166 211 206 105 85 223 165 243 165 7 0 46 -11 85 -24z m-6168 -83 c13 -72 48 -145 104 -221 71 -95 141 -160 216 -203 73 -41 58 -48 -33 -16 -91 32 -167 83 -242 165 l-62 67 -4 128 c-4 123 6 160 21 80z m2780 -44 l38 -62 -22 -16 c-12 -9 -63 -38 -112 -65 l-91 -48 45 58 c46 59 87 147 87 185 0 29 12 18 55 -52z m3657 39 c79 -19 87 -23 74 -37 -24 -29 -84 -144 -117 -226 -39 -98 -65 -221 -74 -351 -10 -157 -35 -401 -46 -457 -10 -54 -37 -116 -67 -156 -18 -23 -19 -14 -25 367 -4 215 -4 479 0 586 l6 195 66 50 c36 27 73 50 81 50 8 1 54 -9 102 -21z m-4812 -32 c67 -21 243 -96 257 -109 15 -15 73 -158 128 -312 24 -66 59 -158 79 -204 38 -87 109 -317 103 -334 -1 -5 -29 53 -61 129 -104 248 -173 375 -278 516 -55 73 -123 158 -151 188 -98 104 -131 140 -127 140 3 0 25 -7 50 -14z m5167 -50 c6 -3 -26 -42 -71 -88 -130 -129 -183 -255 -261 -608 -42 -193 -52 -221 -117 -328 -83 -140 -133 -198 -87 -103 36 76 55 201 89 606 18 207 60 343 158 512 l41 70 118 -28 c65 -16 123 -31 130 -33z m903 13 c0 -39 168 -215 285 -300 69 -50 294 -184 385 -229 41 -20 172 -86 290 -146 118 -60 260 -129 315 -154 88 -39 181 -90 164 -90 -13 0 -138 50 -224 90 -49 23 -126 53 -170 67 -44 14 -84 29 -90 33 -15 11 -134 58 -196 76 -30 9 -93 38 -142 64 -48 27 -142 75 -209 107 -66 32 -221 108 -343 168 l-223 110 72 111 c63 100 86 124 86 93z m-6662 -35 c98 -32 357 -163 430 -217 18 -14 109 -95 201 -181 138 -126 189 -182 276 -298 59 -78 120 -169 137 -201 l29 -59 -47 33 c-26 19 -93 75 -148 124 -239 213 -488 405 -649 499 -85 50 -313 142 -424 171 -37 10 -70 20 -72 21 -2 2 18 37 44 79 l48 77 36 -7 c20 -4 82 -22 139 -41z m5087 -37 c-28 -23 -81 -71 -120 -106 -38 -36 -95 -87 -125 -115 -174 -159 -585 -573 -701 -706 -214 -245 -256 -304 -371 -520 -73 -138 -113 -292 -129 -491 -15 -185 -6 -261 55 -442 24 -73 47 -144 50 -159 3 -14 9 -34 12 -45 22 -62 -75 116 -163 302 -91 192 -107 234 -125 325 -33 172 -16 312 65 515 17 43 46 101 63 127 51 75 255 298 366 400 56 51 138 127 183 168 108 100 244 216 330 281 162 122 244 191 298 253 41 47 101 95 205 165 81 54 149 96 152 94 2 -2 -18 -23 -45 -46z m811 23 c71 -18 152 -42 194 -57 10 -4 4 -10 -21 -22 -81 -37 -196 -149 -365 -356 -69 -84 -142 -199 -208 -327 -35 -68 -79 -148 -98 -178 -37 -57 -131 -164 -106 -120 8 14 33 57 56 95 42 72 67 151 117 380 52 233 108 369 196 474 47 57 132 131 149 131 4 0 42 -9 86 -20z m-772 -207 c-6 -164 -9 -184 -36 -253 -46 -118 -124 -257 -198 -355 -37 -49 -92 -124 -122 -166 -84 -121 -163 -228 -228 -309 -33 -41 -90 -120 -127 -175 -38 -55 -90 -130 -116 -167 -98 -137 -161 -279 -187 -423 -16 -92 -50 -390 -50 -443 0 -56 -47 -223 -87 -312 l-16 -35 -8 45 c-4 25 -12 144 -18 265 -6 121 -16 260 -23 308 -9 69 -9 109 0 185 7 53 12 120 12 147 0 71 45 228 86 305 42 76 83 131 214 291 53 63 118 146 145 183 55 76 123 163 261 336 50 63 121 160 157 215 35 55 80 123 99 150 73 105 167 253 203 318 20 37 39 67 41 67 3 0 2 -80 -2 -177z m-3372 45 c-4 -147 -37 -328 -82 -444 -74 -194 -241 -499 -289 -528 -12 -8 13 92 54 219 20 61 45 148 56 194 11 46 33 114 49 150 16 37 49 124 74 195 25 70 66 166 91 213 26 47 44 87 41 90 -9 9 -96 -153 -133 -247 -20 -52 -52 -133 -71 -180 -18 -47 -45 -123 -58 -170 -14 -47 -36 -124 -49 -171 -13 -47 -38 -114 -54 -148 -25 -54 -29 -58 -34 -36 -5 31 8 222 23 320 16 105 59 272 85 332 65 146 221 322 295 332 3 1 4 -54 2 -121z m3312 70 c-17 -33 -138 -221 -202 -313 -19 -27 -67 -99 -106 -160 -40 -60 -121 -170 -180 -243 -59 -74 -146 -186 -193 -250 -47 -64 -125 -164 -172 -222 -132 -160 -174 -218 -219 -300 -41 -76 -82 -211 -82 -272 0 -19 -7 -81 -16 -139 -16 -105 -16 -135 4 -449 8 -122 5 -446 -5 -437 -2 2 -31 82 -64 178 -105 299 -125 353 -136 374 -31 59 -45 357 -23 492 28 170 116 382 233 560 79 120 283 349 552 621 205 207 609 592 622 592 2 0 -4 -15 -13 -32z m1225 -46 c42 -14 103 -28 136 -31 l60 -6 -48 -22 c-26 -12 -93 -48 -150 -79 -255 -143 -375 -234 -622 -474 -122 -119 -211 -202 -280 -260 l-30 -25 21 25 c32 40 96 147 149 250 132 260 404 584 554 659 l56 28 39 -19 c21 -11 73 -31 115 -46z m-4701 -9 c-166 -176 -220 -334 -267 -791 -13 -124 -26 -145 -35 -56 -4 38 -14 98 -22 133 -27 119 -29 227 -6 318 45 178 136 297 327 426 62 42 63 32 3 -30z m-2405 -161 c45 -22 99 -43 121 -47 51 -8 39 -18 -22 -17 -61 2 -165 34 -259 80 l-73 35 0 67 0 67 75 -73 c55 -52 99 -83 158 -112z m705 144 c134 -47 307 -125 378 -172 101 -66 368 -268 492 -373 103 -86 306 -290 298 -298 -5 -6 -111 48 -168 85 -31 20 -101 71 -155 112 -99 76 -315 222 -408 276 -135 78 -328 153 -430 168 -22 3 -69 15 -105 27 -36 12 -95 24 -133 28 l-67 6 61 94 61 93 40 -6 c21 -4 82 -22 136 -40z m1901 -14 c0 -26 -4 -65 -8 -87 -7 -33 -9 -23 -10 53 -1 60 3 91 9 87 6 -3 10 -27 9 -53z m128 -232 c28 -63 70 -158 93 -210 91 -207 220 -416 360 -580 87 -102 165 -203 182 -233 11 -21 -142 97 -236 182 -200 180 -258 253 -352 440 -95 190 -133 340 -147 586 l-5 80 27 -75 c16 -41 51 -127 78 -190z m8413 66 l0 -174 -147 -36 c-168 -40 -405 -87 -410 -82 -2 2 31 23 74 46 94 52 118 69 253 182 58 49 132 122 165 163 33 41 61 75 63 75 1 0 2 -78 2 -174z m-8295 -49 c104 -123 266 -354 363 -517 90 -152 242 -496 242 -547 0 -19 -145 136 -270 287 -111 135 -202 275 -286 442 -44 86 -175 386 -210 478 l-25 65 43 -45 c24 -25 88 -99 143 -163z m4615 138 c136 -69 136 -69 42 -91 -55 -14 -349 -127 -417 -162 -163 -82 -342 -193 -429 -266 -83 -70 -195 -149 -281 -197 -85 -48 -184 -93 -191 -86 -2 2 50 52 116 111 67 60 156 143 198 185 101 99 295 269 352 308 132 89 444 260 480 262 3 0 61 -29 130 -64z m-5269 -10 c-136 -141 -186 -336 -146 -560 16 -90 19 -175 6 -175 -10 0 -50 111 -91 254 -17 60 -49 154 -71 208 -23 55 -39 100 -38 102 2 1 31 18 64 38 33 19 107 64 165 99 130 79 164 98 169 99 2 0 -24 -29 -58 -65z m691 -62 c167 -121 299 -243 351 -320 76 -116 167 -316 219 -478 25 -81 50 -247 39 -258 -9 -9 -43 49 -71 123 -7 19 -21 46 -30 60 -10 14 -48 84 -85 155 -115 219 -284 477 -409 623 -110 129 -161 195 -140 184 10 -6 67 -46 126 -89z m178 -51 c191 -112 268 -169 321 -240 76 -103 164 -287 190 -400 21 -89 22 -103 10 -197 -14 -120 -41 -222 -52 -203 -4 7 -11 42 -14 78 -22 234 -188 639 -319 778 -62 67 -211 192 -303 256 -46 32 -83 60 -83 62 0 6 127 -63 250 -134z m-3116 22 l71 -23 -126 -1 -126 0 -6 47 c-3 27 -3 51 -1 55 2 3 29 -8 60 -24 31 -17 89 -41 128 -54z m5576 81 c0 -5 -88 -75 -250 -200 -128 -98 -207 -166 -319 -271 -42 -39 -106 -96 -142 -126 -113 -94 -347 -347 -418 -451 -39 -58 -83 -161 -119 -282 -45 -155 -35 -380 25 -520 14 -33 33 -82 43 -110 9 -27 50 -115 89 -195 59 -119 66 -139 41 -110 -50 57 -251 365 -322 495 -73 133 -101 213 -120 341 -11 80 -11 92 10 173 12 47 44 128 70 179 45 90 50 95 120 139 41 26 118 78 171 117 54 39 141 96 195 126 143 81 249 160 356 263 52 51 127 113 166 137 87 55 176 120 303 222 98 79 101 81 101 73z m-2896 -142 c19 -135 48 -227 126 -390 77 -161 124 -229 238 -345 53 -54 94 -100 91 -102 -3 -3 -30 9 -60 27 -30 18 -83 51 -119 72 -36 21 -75 47 -87 58 -13 11 -23 18 -23 14 0 -5 -78 29 -223 98 -21 10 -41 25 -46 34 -4 9 0 61 9 116 13 79 17 94 22 70 10 -45 117 -202 182 -265 31 -30 56 -51 56 -47 0 3 -28 38 -62 76 -35 38 -84 104 -110 148 -39 64 -49 92 -58 153 -7 51 -7 86 0 110 5 19 10 50 10 69 0 18 4 50 10 70 5 20 12 62 15 94 4 32 8 57 10 55 2 -1 10 -54 19 -115z m-2034 57 c32 -11 77 -22 101 -26 107 -15 300 -90 434 -169 148 -86 445 -292 525 -364 l35 -32 -32 16 c-18 8 -74 30 -125 49 -198 74 -225 84 -273 109 -27 14 -88 42 -135 61 -47 19 -130 53 -185 75 -147 61 -575 274 -571 286 8 29 134 26 226 -5z m7177 -42 c79 -35 143 -66 143 -69 0 -4 -10 -9 -22 -12 -224 -54 -658 -187 -748 -229 -36 -17 -74 -34 -85 -38 -20 -8 -385 -169 -440 -195 -129 -60 -244 -99 -320 -109 l-40 -5 55 27 c104 53 195 111 285 181 199 156 352 253 524 333 119 55 448 175 486 177 11 1 84 -27 162 -61z m-5207 -48 c-10 -23 -10 -22 -5 9 3 18 6 43 7 55 1 12 3 9 5 -9 2 -17 -1 -42 -7 -55z m-2695 38 c-22 -11 -55 -34 -72 -51 l-33 -31 0 52 0 52 73 0 72 -1 -40 -21z m185 7 c0 -2 -34 -27 -75 -55 -70 -47 -167 -136 -200 -183 -14 -20 -15 -16 -15 50 0 63 3 75 26 103 15 17 50 44 78 60 42 25 62 30 119 30 37 0 67 -2 67 -5z m28 -69 c-114 -114 -235 -353 -293 -578 l-24 -93 -1 223 c0 191 2 227 17 250 28 46 145 162 202 200 30 21 66 45 80 54 14 10 41 18 59 18 l33 0 -73 -74z m73 -28 c-84 -124 -144 -234 -171 -314 -37 -105 -72 -276 -86 -419 -23 -228 -43 -407 -53 -460 -4 -27 -14 -81 -21 -120 -6 -38 -19 -99 -28 -135 l-17 -65 -6 70 c-4 39 -7 213 -8 387 l-1 316 35 140 c61 245 164 469 275 596 64 74 104 106 133 106 13 0 1 -24 -52 -102z m149 96 c0 -3 -8 -18 -19 -32 -24 -35 -75 -145 -118 -255 -38 -99 -81 -273 -118 -482 -14 -77 -28 -147 -31 -155 -10 -29 -44 -235 -44 -271 0 -20 -9 -88 -19 -150 -11 -63 -25 -157 -31 -209 -19 -155 -68 -327 -118 -410 l-27 -45 -3 158 c-2 144 0 165 22 235 13 42 32 120 41 172 10 52 22 118 27 145 10 58 32 248 52 455 27 274 84 464 198 654 83 140 130 196 164 196 13 0 24 -3 24 -6z m15 -50 c-8 -27 -19 -80 -25 -119 -6 -38 -37 -178 -70 -310 -81 -330 -115 -496 -150 -730 -31 -203 -85 -494 -119 -640 -20 -87 -89 -223 -146 -290 l-34 -40 -1 48 c0 36 10 66 39 125 64 128 111 288 132 457 10 83 24 173 30 200 5 28 14 95 19 150 5 55 19 147 31 205 11 58 31 161 44 230 51 280 97 442 177 624 33 76 77 151 84 144 2 -3 -3 -27 -11 -54z m58 9 c13 -26 38 -127 57 -233 13 -75 -6 -332 -35 -465 -34 -155 -62 -236 -124 -363 -80 -160 -155 -367 -271 -747 -52 -173 -63 -201 -68 -187 -2 6 8 53 22 104 14 51 32 134 41 183 9 50 25 131 35 180 23 109 56 302 70 410 16 123 75 404 141 670 32 132 63 272 69 310 10 67 37 165 46 165 2 0 10 -12 17 -27z m5513 -368 c-30 -66 -59 -136 -65 -155 -15 -45 -95 -153 -376 -509 -158 -200 -232 -332 -256 -461 -21 -116 -69 -289 -108 -393 -49 -130 -174 -389 -197 -407 -15 -13 -16 -13 -11 5 15 48 36 220 42 335 3 69 17 204 31 300 29 199 55 272 141 400 161 241 208 308 233 335 15 17 47 57 71 89 92 124 165 224 233 321 38 55 89 123 112 151 43 53 152 250 175 318 14 38 14 36 21 -85 l7 -124 -53 -120z m-4999 112 c95 -73 207 -157 249 -187 310 -224 544 -431 880 -780 72 -74 238 -241 370 -370 131 -129 243 -241 248 -249 5 -7 -11 0 -35 16 -24 16 -75 48 -114 71 -38 22 -128 88 -200 147 -112 91 -291 231 -386 300 -67 50 -331 299 -422 400 -233 256 -500 510 -677 645 -68 52 -300 243 -300 247 0 2 48 -22 108 -52 71 -37 165 -100 279 -188z m-335 48 c56 -77 106 -156 111 -175 6 -19 10 -80 10 -135 -2 -172 -72 -361 -195 -525 -144 -194 -155 -211 -267 -437 -83 -166 -200 -451 -225 -546 -8 -30 -22 -68 -30 -84 l-16 -28 5 30 c16 86 90 346 155 545 79 238 125 359 184 480 31 63 67 147 81 185 39 114 74 297 86 448 11 143 7 213 -13 276 -6 18 -16 60 -23 93 l-12 58 24 -22 c14 -13 70 -86 125 -163z m1988 68 c-6 -29 -9 -57 -6 -62 3 -5 1 -33 -4 -62 -5 -30 -17 -99 -26 -154 -12 -76 -21 -105 -37 -121 -23 -22 -182 -134 -191 -134 -3 0 25 62 61 138 92 193 159 349 186 430 17 53 23 63 25 43 2 -14 -1 -50 -8 -78z m5526 36 c63 -34 113 -63 111 -65 -2 -3 -53 -9 -113 -14 -130 -12 -297 -54 -437 -111 -56 -23 -177 -63 -268 -90 -92 -26 -202 -63 -245 -80 -74 -30 -86 -32 -191 -30 -117 3 -110 4 -313 -64 -52 -18 -115 -36 -140 -39 l-45 -7 60 26 c33 15 76 32 95 40 39 15 109 45 185 80 413 190 624 268 995 364 63 16 126 34 140 40 40 16 44 14 166 -50z m-7399 -164 c80 -95 221 -249 418 -455 66 -69 138 -148 160 -175 160 -202 450 -501 583 -603 41 -30 106 -75 145 -98 93 -55 517 -267 588 -293 60 -23 122 -61 99 -61 -32 1 -411 101 -515 137 -100 34 -155 62 -339 171 -32 19 -92 64 -135 100 -42 35 -87 72 -100 80 -13 9 -43 46 -67 82 -130 196 -382 521 -544 700 -158 175 -277 327 -468 600 -32 47 80 -73 175 -185z m106 -3 c45 -34 118 -96 162 -136 44 -40 107 -95 140 -123 71 -60 234 -225 372 -378 137 -152 359 -355 538 -491 83 -63 206 -159 275 -215 69 -55 170 -127 225 -161 101 -61 190 -127 182 -135 -8 -8 -153 56 -344 151 -105 53 -196 96 -201 96 -5 0 -27 13 -48 28 -21 15 -66 43 -99 61 -33 19 -91 58 -130 88 -96 74 -356 333 -473 472 -153 180 -242 281 -312 352 -102 102 -288 305 -372 404 -42 50 -93 110 -114 135 -37 42 -34 41 39 -20 43 -36 115 -93 160 -128z m10367 101 l-1 -78 -60 -45 c-160 -118 -204 -146 -344 -215 -166 -82 -330 -137 -484 -160 -53 -8 -134 -22 -181 -30 -47 -8 -130 -19 -185 -25 -115 -13 -344 -53 -427 -75 -87 -22 -171 -59 -266 -116 -188 -113 -229 -142 -424 -301 -38 -32 -72 -58 -74 -58 -14 0 145 181 245 279 127 125 235 202 401 286 154 77 257 103 690 175 348 58 551 105 649 150 102 48 241 135 311 194 51 44 131 96 148 96 1 0 2 -35 2 -77z m-101 43 c-76 -75 -310 -217 -424 -258 -109 -39 -258 -70 -690 -143 -246 -42 -375 -69 -448 -94 -136 -47 -381 -190 -482 -280 -27 -25 -60 -54 -73 -65 -12 -11 26 54 86 144 59 91 120 186 135 212 15 26 36 52 46 58 11 5 68 20 128 33 59 13 153 36 208 50 55 15 197 47 315 73 118 25 287 66 375 89 88 23 255 63 370 88 116 26 260 57 320 70 112 25 142 30 134 23z m-10004 -132 c17 -7 49 -20 72 -28 43 -15 218 -127 300 -192 64 -51 207 -177 211 -186 2 -4 70 -65 150 -134 189 -162 451 -421 555 -548 45 -55 101 -121 123 -147 78 -89 217 -295 238 -354 4 -10 -21 8 -56 41 -149 143 -603 601 -718 723 -172 183 -445 425 -655 580 -33 25 -85 63 -115 86 -30 22 -65 47 -77 55 -36 25 -253 192 -253 196 0 3 167 -65 225 -92z m2512 34 c54 -28 99 -52 99 -52 5 -3 -26 -227 -35 -249 -6 -16 -11 -45 -12 -65 -1 -28 -5 -18 -18 43 -18 82 -75 242 -118 328 -13 26 -21 47 -18 47 2 0 48 -23 102 -52z m4722 33 c12 -8 8 -11 -15 -17 -44 -11 -177 -65 -284 -117 -52 -25 -133 -60 -180 -77 -47 -17 -113 -42 -147 -55 -55 -22 -82 -25 -255 -30 -106 -3 -220 -7 -253 -10 -57 -5 -59 -5 -34 9 15 9 121 42 235 75 115 33 247 76 294 96 118 51 327 103 455 115 60 6 111 13 114 15 8 8 55 5 70 -4z m89 -37 c57 -25 61 -28 93 -97 31 -69 94 -307 126 -477 9 -48 16 -147 17 -230 1 -142 0 -146 -28 -203 -16 -31 -30 -56 -32 -55 -1 2 -10 56 -18 121 -28 201 -158 618 -257 826 -27 57 -48 106 -46 107 2 2 21 10 43 18 21 8 40 15 41 15 1 1 28 -11 61 -25z m-120 -112 c72 -161 111 -272 196 -557 47 -155 66 -247 65 -315 l0 -55 -20 50 c-10 28 -29 86 -40 130 -12 44 -53 150 -92 235 -102 223 -158 319 -266 450 -33 41 -61 77 -61 81 0 5 42 25 135 64 28 11 31 10 46 -12 9 -13 25 -45 37 -71z m2902 -41 l0 -119 -51 -39 c-130 -98 -190 -136 -327 -206 -227 -115 -448 -179 -735 -212 -73 -9 -170 -22 -217 -31 -47 -8 -139 -24 -205 -35 -112 -18 -167 -30 -430 -95 -130 -32 -244 -74 -380 -141 -60 -29 -98 -44 -84 -34 14 11 77 62 140 113 208 170 417 298 568 347 83 27 291 66 456 86 72 8 164 22 205 30 41 8 113 19 160 25 274 35 643 202 845 384 28 25 51 45 53 46 1 0 2 -54 2 -119z m-2598 83 c87 -29 79 -15 114 -179 25 -115 22 -393 -7 -562 -11 -69 -24 -134 -27 -144 -4 -10 -7 55 -7 144 -1 94 -7 192 -14 232 -35 176 -103 439 -126 485 -14 27 -22 50 -18 50 4 0 43 -12 85 -26z m-2635 -204 c-19 -41 -57 -122 -85 -180 -52 -108 -87 -187 -174 -395 -105 -252 -218 -464 -313 -592 -57 -77 -111 -169 -193 -328 -52 -101 -110 -193 -162 -255 l-21 -25 7 25 c3 14 28 77 54 140 79 190 155 437 189 617 23 124 105 268 264 466 246 307 353 452 368 497 6 19 30 77 53 129 l41 94 3 -59 c2 -50 -3 -71 -31 -134z m2160 85 c158 -190 358 -601 379 -784 l6 -46 -22 25 c-11 14 -42 54 -68 90 -51 72 -85 116 -182 241 -36 46 -92 122 -125 169 -33 47 -106 133 -163 192 -115 118 -114 110 -17 142 28 9 66 25 85 36 27 14 38 16 46 7 6 -7 33 -39 61 -72z m710 20 l71 -30 7 -52 c11 -88 -5 -255 -32 -330 -13 -38 -34 -102 -47 -143 -31 -98 -80 -211 -117 -269 -33 -53 -35 -47 -14 41 34 149 48 277 49 448 1 165 -8 250 -40 368 -6 22 -6 23 23 10 16 -7 61 -26 100 -43z m-8011 -95 c22 -26 52 -62 66 -81 l26 -34 -23 -85 c-72 -265 -127 -382 -276 -585 -36 -49 -87 -126 -114 -170 -48 -82 -209 -317 -252 -369 -14 -16 -37 -55 -53 -86 -27 -54 -139 -204 -147 -197 -2 2 8 42 21 88 73 252 324 769 431 889 48 54 144 209 173 280 56 139 75 232 69 350 l-5 105 22 -29 c11 -16 39 -50 62 -76z m744 36 c63 -23 138 -55 165 -69 62 -32 352 -324 479 -482 113 -142 362 -515 343 -515 -3 0 -61 69 -130 153 -132 160 -403 434 -549 555 -47 39 -128 112 -180 160 -104 100 -179 166 -215 189 -25 17 -50 53 -35 53 4 0 59 -20 122 -44z m6367 -91 c62 -64 139 -155 172 -203 33 -48 85 -118 116 -157 30 -38 87 -113 127 -165 177 -235 190 -257 118 -200 -58 46 -792 781 -786 787 5 5 126 51 137 52 3 1 55 -51 116 -114z m1100 59 c54 -25 108 -50 121 -55 22 -9 22 -10 6 -41 -42 -83 -133 -230 -185 -299 -31 -42 -69 -100 -84 -129 -25 -49 -125 -189 -125 -175 0 3 7 22 17 43 24 53 40 96 73 192 16 47 38 112 51 145 18 51 22 83 23 212 0 84 2 153 3 153 1 0 46 -21 100 -46z m-3050 -346 c-13 -18 -55 -85 -92 -148 -37 -63 -85 -142 -105 -175 -21 -33 -52 -87 -70 -120 -41 -74 -150 -241 -204 -315 -23 -30 -61 -87 -86 -126 -51 -82 -150 -227 -180 -264 -59 -73 45 121 160 300 152 237 194 315 307 580 63 147 121 277 234 519 l44 94 8 -156 c9 -156 9 -156 -16 -189z m5196 78 c-9 -6 -110 -62 -223 -125 -199 -110 -349 -178 -487 -221 -79 -25 -517 -82 -843 -110 -398 -35 -713 -80 -825 -118 -33 -11 -61 -19 -63 -17 -8 8 266 136 351 164 210 69 643 158 982 201 311 39 525 100 745 211 163 82 246 135 320 202 l55 50 3 -113 c2 -100 0 -115 -15 -124z m-8521 61 c47 -71 52 -84 55 -140 3 -75 33 -195 107 -422 96 -298 116 -404 95 -523 -6 -40 -14 -71 -16 -68 -2 2 -13 41 -24 87 -29 126 -55 200 -124 354 -116 260 -161 402 -190 593 -16 103 -19 209 -8 238 5 15 9 13 30 -12 13 -16 47 -64 75 -107z m-125 71 c-4 -28 0 -102 8 -164 26 -198 77 -361 195 -629 71 -161 119 -307 126 -388 l5 -62 -24 56 c-13 31 -80 164 -149 295 -193 366 -257 566 -258 806 l0 66 48 35 c26 20 49 36 51 36 2 1 1 -22 -2 -51z m183 6 c41 -25 95 -62 120 -82 24 -21 90 -70 145 -110 162 -117 204 -153 268 -227 34 -38 104 -115 156 -170 51 -55 171 -197 266 -315 143 -179 222 -265 469 -510 163 -162 312 -317 332 -344 37 -50 35 -50 -31 -6 -22 15 -87 51 -145 80 -126 63 -264 157 -380 258 -111 97 -144 133 -253 277 -195 257 -236 314 -307 430 -79 128 -133 186 -558 598 -94 92 -168 167 -164 167 4 0 41 -21 82 -46z m-801 10 c130 -52 215 -124 266 -224 14 -27 99 -168 189 -312 211 -341 331 -549 308 -534 -6 4 -30 36 -53 71 -23 36 -45 62 -50 60 -4 -3 -11 0 -15 6 -4 8 -3 9 4 5 7 -4 12 -4 12 -1 0 29 -179 316 -284 455 -94 124 -273 326 -380 428 -42 39 -73 72 -69 72 3 0 36 -12 72 -26z m-866 -223 c-42 -218 -134 -379 -400 -698 -119 -143 -578 -606 -548 -553 5 8 28 40 51 70 24 30 50 71 58 90 8 19 29 55 47 80 91 123 187 264 237 345 30 50 79 126 110 170 104 150 149 220 179 280 38 74 118 304 128 365 4 25 9 48 12 53 2 4 35 -25 72 -65 l67 -72 -13 -65z m1887 -75 c280 -270 323 -318 414 -462 47 -74 119 -178 159 -230 39 -52 83 -110 97 -128 88 -117 154 -197 195 -236 26 -25 65 -67 88 -95 l42 -49 -80 44 c-44 24 -100 57 -124 72 -25 15 -49 28 -54 28 -5 0 -47 26 -93 57 -69 46 -91 68 -121 117 -20 34 -71 110 -112 170 -42 59 -110 157 -151 216 -96 137 -217 304 -354 488 -60 80 -129 177 -154 216 l-45 71 74 -70 c41 -38 139 -133 219 -209z m-517 220 c-8 -52 15 -231 43 -335 38 -140 95 -276 194 -461 126 -237 157 -301 164 -340 4 -19 -27 37 -69 125 -42 87 -80 164 -84 170 -5 5 -26 44 -48 85 -38 74 -98 181 -175 311 -47 80 -100 205 -135 314 -21 65 -23 81 -12 88 8 4 39 23 69 41 30 19 56 34 57 35 1 1 -1 -14 -4 -33z m597 -84 c41 -25 102 -66 135 -92 33 -26 121 -87 195 -136 74 -49 158 -108 186 -131 28 -22 71 -53 95 -68 56 -35 139 -115 244 -235 45 -52 131 -144 191 -205 60 -60 123 -128 139 -150 17 -22 66 -85 111 -140 81 -101 107 -138 205 -298 64 -105 131 -236 127 -249 -6 -17 -246 207 -516 481 -199 200 -307 319 -437 481 -95 118 -217 262 -271 320 -55 58 -121 132 -149 164 -58 68 -134 133 -270 231 -54 39 -112 83 -129 98 l-31 28 50 -27 c28 -15 84 -47 125 -72z m-729 -39 c35 -109 97 -253 138 -323 115 -197 154 -266 209 -370 73 -138 159 -323 136 -295 -8 11 -31 54 -51 95 -50 108 -114 217 -325 558 -103 166 -190 311 -193 321 -4 14 4 29 27 50 18 17 34 31 35 31 1 0 11 -30 24 -67z m8909 -103 c0 -77 -4 -140 -8 -140 -5 0 -35 -16 -68 -36 -146 -89 -405 -212 -539 -256 -205 -68 -291 -78 -690 -84 -272 -4 -383 -1 -560 13 -121 10 -297 18 -392 18 -94 0 -171 0 -170 1 1 1 31 17 67 36 57 31 86 39 240 62 223 33 302 42 535 61 178 15 442 45 703 80 166 23 352 90 547 197 221 122 268 148 293 168 15 10 30 20 35 20 4 0 7 -63 7 -140z m-10031 20 l80 -101 -19 -55 c-11 -31 -30 -72 -42 -93 -28 -45 -226 -308 -287 -379 -91 -108 -370 -341 -546 -455 -60 -40 -152 -100 -204 -135 -51 -35 -95 -61 -97 -59 -2 2 35 39 83 83 138 124 437 429 532 542 47 57 112 140 143 185 32 45 76 107 98 138 22 31 54 88 71 125 17 38 38 87 48 109 10 22 26 75 36 118 10 42 20 77 22 77 2 0 39 -45 82 -100z m1712 -105 c34 -48 37 -55 43 -155 3 -58 13 -145 22 -195 19 -101 25 -424 8 -462 -6 -15 -9 9 -10 85 -2 133 -23 228 -109 497 -60 185 -105 359 -105 409 0 18 66 -60 151 -179z m1261 92 c-39 -68 -82 -216 -82 -278 0 -46 21 -174 36 -214 11 -32 -68 79 -156 219 -45 71 -78 132 -73 135 5 3 42 32 83 63 74 56 211 139 219 132 2 -2 -10 -28 -27 -57z m-2808 -202 l66 -86 -37 -67 c-64 -115 -164 -253 -238 -327 -56 -56 -92 -81 -175 -122 -58 -29 -148 -78 -200 -109 -199 -118 -622 -339 -585 -306 6 5 62 42 125 83 248 159 532 393 642 529 107 133 251 335 290 409 24 44 44 81 45 81 1 0 31 -38 67 -85z m2586 -81 c41 -66 94 -147 118 -179 38 -54 101 -158 225 -370 22 -38 45 -77 51 -86 101 -149 157 -229 165 -234 40 -24 186 -284 169 -300 -8 -8 -85 98 -158 219 -99 162 -323 444 -423 532 -24 22 -75 75 -113 119 -38 44 -115 128 -171 186 -59 61 -103 115 -103 126 0 11 10 29 23 40 28 26 119 74 132 70 5 -2 43 -57 85 -123z m7280 -13 l0 -128 -88 -50 c-125 -71 -439 -178 -659 -223 -165 -34 -268 -38 -422 -19 -75 10 -210 22 -301 28 -174 11 -332 35 -515 76 -60 14 -175 34 -254 45 -79 11 -146 22 -148 24 -5 5 13 11 87 26 46 10 106 8 340 -10 246 -19 336 -21 655 -17 421 5 497 14 711 87 125 43 405 178 513 248 35 23 68 42 73 42 4 0 8 -58 8 -129z m-8225 71 c13 -21 46 -65 73 -100 l48 -63 -3 -87 c-6 -144 -22 -278 -39 -328 -16 -47 -95 -187 -101 -180 -3 2 4 30 13 62 26 86 24 325 -4 509 -38 258 -38 264 13 187z m-1516 -139 c22 -32 49 -69 60 -83 l19 -24 -36 -49 c-21 -27 -52 -66 -70 -87 -32 -37 -183 -146 -282 -202 -83 -48 -408 -197 -464 -213 -30 -9 -68 -22 -83 -30 -57 -28 -197 -85 -200 -81 -3 2 40 28 94 56 54 29 168 94 253 143 85 50 182 103 215 118 80 36 160 100 246 195 67 76 156 214 181 282 7 17 15 32 20 32 4 0 25 -26 47 -57z m1708 -125 l50 -73 -12 -111 c-20 -167 -30 -183 -234 -338 -16 -12 -3 13 51 99 17 28 39 74 50 104 20 55 37 205 38 324 0 37 2 67 4 67 2 0 26 -33 53 -72z m8033 -81 l0 -123 -57 -27 c-66 -30 -89 -36 -266 -72 -107 -22 -137 -25 -180 -16 -29 5 -131 19 -227 31 -96 12 -179 22 -185 24 -5 2 13 7 40 11 161 24 320 65 530 137 145 49 201 74 280 122 33 20 61 36 63 36 1 0 2 -55 2 -123z m-9631 51 c8 -13 31 -52 51 -88 20 -36 46 -82 58 -103 30 -52 29 -83 -6 -101 -41 -21 -111 -38 -472 -111 -179 -37 -334 -69 -345 -71 -32 -9 42 35 93 54 26 10 126 62 222 116 185 103 260 166 337 279 18 26 36 47 40 47 5 0 15 -10 22 -22z m150 -135 c77 -65 158 -118 304 -198 38 -20 67 -39 64 -41 -6 -6 -131 23 -219 52 -59 19 -85 34 -111 64 -46 50 -136 190 -123 190 3 0 41 -30 85 -67z m1554 18 c34 -44 37 -54 37 -112 0 -97 -27 -144 -111 -192 -56 -32 -167 -72 -176 -64 -1 2 30 30 69 62 94 78 116 122 131 254 6 55 11 101 12 101 0 0 18 -22 38 -49z m7927 -152 l0 -71 -84 7 c-46 3 -101 11 -122 16 -22 4 -66 9 -99 10 l-60 1 45 10 c109 24 237 61 270 78 19 11 38 19 43 20 4 0 7 -32 7 -71z m-7810 -20 c34 -81 10 -112 -115 -152 -127 -39 -133 -40 -74 -5 31 18 64 40 74 48 29 24 55 91 55 144 0 48 1 49 19 32 11 -10 29 -40 41 -67z"/>
 </g>

</svg>